M48
; DRILL file {KiCad 5.1.10} date Tue Jun 22 11:56:43 2021
; FORMAT={-:-/ absolute / metric / decimal}
; #@! TF.CreationDate,2021-06-22T11:56:43+03:00
; #@! TF.GenerationSoftware,Kicad,Pcbnew,5.1.10
; #@! TF.FileFunction,Plated,1,2,PTH
FMAT,2
METRIC
T1C0.400
T2C0.600
T3C0.900
T4C1.200
%
G90
G05
T1
X109.22Y-92.583
X137.922Y-92.583
X165.862Y-100.203
X169.672Y-104.013
X220.345Y-74.422
X220.726Y-69.596
X221.996Y-83.947
X223.52Y-61.214
X223.647Y-70.485
X223.774Y-68.199
X223.83Y-69.451
X226.507Y-53.279
X227.035Y-67.928
X227.076Y-66.802
X227.296Y-68.893
X227.965Y-80.137
X228.727Y-89.119
X228.727Y-104.013
X229.743Y-71.12
X230.378Y-69.215
X230.505Y-59.69
X230.505Y-70.358
X230.759Y-94.707
X230.759Y-100.295
X231.039Y-68.465
X231.296Y-69.612
X231.733Y-67.745
X232.036Y-68.843
X232.727Y-67.935
X234.823Y-73.025
X235.616Y-69.469
X235.712Y-81.28
X235.819Y-70.592
X235.966Y-71.628
X236.347Y-63.627
X236.855Y-92.71
X238.252Y-71.755
T4
X91.44Y-78.867
X95.25Y-75.507
X97.79Y-76.327
X100.35Y-77.507
X110.49Y-64.135
X110.49Y-83.185
X110.49Y-102.235
X114.3Y-60.775
X114.3Y-79.825
X114.3Y-98.875
X116.84Y-61.595
X116.84Y-80.645
X116.84Y-99.695
X119.4Y-62.775
X119.4Y-81.825
X119.4Y-100.875
X129.54Y-61.595
X129.54Y-80.645
X129.54Y-99.695
X133.35Y-58.235
X133.35Y-77.285
X133.35Y-96.335
X135.89Y-59.055
X135.89Y-78.105
X135.89Y-97.155
X138.45Y-60.235
X138.45Y-79.285
X138.45Y-98.335
X148.59Y-51.435
X148.59Y-70.485
X148.59Y-89.535
X152.4Y-48.075
X152.4Y-67.125
X152.4Y-86.175
X154.94Y-48.895
X154.94Y-67.945
X154.94Y-86.995
X157.5Y-50.075
X157.5Y-69.125
X157.5Y-88.175
X167.64Y-48.895
X167.64Y-67.945
X167.64Y-86.995
X171.45Y-45.535
X171.45Y-64.585
X171.45Y-83.635
X173.99Y-46.355
X173.99Y-65.405
X173.99Y-84.455
X176.55Y-47.535
X176.55Y-66.585
X176.55Y-85.635
X186.69Y-51.435
X186.69Y-70.485
X186.69Y-89.535
X186.69Y-108.585
X190.5Y-48.075
X190.5Y-67.125
X190.5Y-86.175
X190.5Y-105.225
X193.04Y-48.895
X193.04Y-67.945
X193.04Y-86.995
X193.04Y-106.045
X195.6Y-50.075
X195.6Y-69.125
X195.6Y-88.175
X195.6Y-107.225
X205.74Y-53.975
X205.74Y-73.025
X205.74Y-92.075
X205.74Y-111.125
X209.55Y-50.615
X209.55Y-69.665
X209.55Y-88.715
X209.55Y-107.765
X212.09Y-51.435
X212.09Y-70.485
X212.09Y-89.535
X212.09Y-108.585
X214.65Y-52.615
X214.65Y-71.665
X214.65Y-90.715
X214.65Y-109.765
X224.79Y-113.665
X228.6Y-110.305
X231.14Y-111.125
X233.7Y-112.305
T2
X220.47Y-50.05G85X220.47Y-49.45
G05
X220.47Y-54.48G85X220.47Y-53.38
G05
X229.11Y-50.05G85X229.11Y-49.45
G05
X229.11Y-54.48G85X229.11Y-53.38
G05
T3
X235.063Y-59.36G85X235.063Y-59.76
G05
X235.063Y-59.36G85X235.063Y-59.76
G05
X239.663Y-51.26G85X239.663Y-51.66
G05
X239.663Y-51.26G85X239.663Y-51.66
G05
X239.663Y-54.26G85X239.663Y-54.66
G05
X239.663Y-54.26G85X239.663Y-54.66
G05
X239.663Y-58.26G85X239.663Y-58.66
G05
X239.663Y-58.26G85X239.663Y-58.66
G05
T0
M30
