G04 #@! TF.GenerationSoftware,KiCad,Pcbnew,5.1.10*
G04 #@! TF.CreationDate,2021-06-22T11:56:40+03:00*
G04 #@! TF.ProjectId,left,6c656674-2e6b-4696-9361-645f70636258,rev?*
G04 #@! TF.SameCoordinates,Original*
G04 #@! TF.FileFunction,Soldermask,Bot*
G04 #@! TF.FilePolarity,Negative*
%FSLAX46Y46*%
G04 Gerber Fmt 4.6, Leading zero omitted, Abs format (unit mm)*
G04 Created by KiCad (PCBNEW 5.1.10) date 2021-06-22 11:56:40*
%MOMM*%
%LPD*%
G01*
G04 APERTURE LIST*
%ADD10C,2.200000*%
%ADD11C,4.000000*%
%ADD12C,1.900000*%
%ADD13C,1.700000*%
%ADD14O,1.600000X2.000000*%
%ADD15C,0.800000*%
%ADD16R,2.500000X1.000000*%
%ADD17O,1.000000X2.100000*%
%ADD18C,0.650000*%
%ADD19O,1.000000X1.600000*%
G04 APERTURE END LIST*
D10*
X119400000Y-62775000D03*
D11*
X114300000Y-66675000D03*
D12*
X108800000Y-66675000D03*
X119800000Y-66675000D03*
D10*
X114300000Y-60775000D03*
X116840000Y-61595000D03*
X110490000Y-64135000D03*
D13*
X119380000Y-66675000D03*
X109220000Y-66675000D03*
D10*
X233700000Y-112305000D03*
D11*
X228600000Y-116205000D03*
D12*
X223100000Y-116205000D03*
X234100000Y-116205000D03*
D10*
X228600000Y-110305000D03*
X231140000Y-111125000D03*
X224790000Y-113665000D03*
D13*
X233680000Y-116205000D03*
X223520000Y-116205000D03*
X109220000Y-85725000D03*
X119380000Y-85725000D03*
D10*
X110490000Y-83185000D03*
X116840000Y-80645000D03*
X114300000Y-79825000D03*
D12*
X119800000Y-85725000D03*
X108800000Y-85725000D03*
D11*
X114300000Y-85725000D03*
D10*
X119400000Y-81825000D03*
X119400000Y-100875000D03*
D11*
X114300000Y-104775000D03*
D12*
X108800000Y-104775000D03*
X119800000Y-104775000D03*
D10*
X114300000Y-98875000D03*
X116840000Y-99695000D03*
X110490000Y-102235000D03*
D13*
X119380000Y-104775000D03*
X109220000Y-104775000D03*
X147320000Y-53975000D03*
X157480000Y-53975000D03*
D10*
X148590000Y-51435000D03*
X154940000Y-48895000D03*
X152400000Y-48075000D03*
D12*
X157900000Y-53975000D03*
X146900000Y-53975000D03*
D11*
X152400000Y-53975000D03*
D10*
X157500000Y-50075000D03*
X214650000Y-71665000D03*
D11*
X209550000Y-75565000D03*
D12*
X204050000Y-75565000D03*
X215050000Y-75565000D03*
D10*
X209550000Y-69665000D03*
X212090000Y-70485000D03*
X205740000Y-73025000D03*
D13*
X214630000Y-75565000D03*
X204470000Y-75565000D03*
X147320000Y-73025000D03*
X157480000Y-73025000D03*
D10*
X148590000Y-70485000D03*
X154940000Y-67945000D03*
X152400000Y-67125000D03*
D12*
X157900000Y-73025000D03*
X146900000Y-73025000D03*
D11*
X152400000Y-73025000D03*
D10*
X157500000Y-69125000D03*
X157500000Y-88175000D03*
D11*
X152400000Y-92075000D03*
D12*
X146900000Y-92075000D03*
X157900000Y-92075000D03*
D10*
X152400000Y-86175000D03*
X154940000Y-86995000D03*
X148590000Y-89535000D03*
D13*
X157480000Y-92075000D03*
X147320000Y-92075000D03*
X90170000Y-81407000D03*
X100330000Y-81407000D03*
D10*
X91440000Y-78867000D03*
X97790000Y-76327000D03*
X95250000Y-75507000D03*
D12*
X100750000Y-81407000D03*
X89750000Y-81407000D03*
D11*
X95250000Y-81407000D03*
D10*
X100350000Y-77507000D03*
X214650000Y-52615000D03*
D11*
X209550000Y-56515000D03*
D12*
X204050000Y-56515000D03*
X215050000Y-56515000D03*
D10*
X209550000Y-50615000D03*
X212090000Y-51435000D03*
X205740000Y-53975000D03*
D13*
X214630000Y-56515000D03*
X204470000Y-56515000D03*
X204470000Y-94615000D03*
X214630000Y-94615000D03*
D10*
X205740000Y-92075000D03*
X212090000Y-89535000D03*
X209550000Y-88715000D03*
D12*
X215050000Y-94615000D03*
X204050000Y-94615000D03*
D11*
X209550000Y-94615000D03*
D10*
X214650000Y-90715000D03*
X138450000Y-60235000D03*
D11*
X133350000Y-64135000D03*
D12*
X127850000Y-64135000D03*
X138850000Y-64135000D03*
D10*
X133350000Y-58235000D03*
X135890000Y-59055000D03*
X129540000Y-61595000D03*
D13*
X138430000Y-64135000D03*
X128270000Y-64135000D03*
X128270000Y-83185000D03*
X138430000Y-83185000D03*
D10*
X129540000Y-80645000D03*
X135890000Y-78105000D03*
X133350000Y-77285000D03*
D12*
X138850000Y-83185000D03*
X127850000Y-83185000D03*
D11*
X133350000Y-83185000D03*
D10*
X138450000Y-79285000D03*
X138450000Y-98335000D03*
D11*
X133350000Y-102235000D03*
D12*
X127850000Y-102235000D03*
X138850000Y-102235000D03*
D10*
X133350000Y-96335000D03*
X135890000Y-97155000D03*
X129540000Y-99695000D03*
D13*
X138430000Y-102235000D03*
X128270000Y-102235000D03*
X166370000Y-51435000D03*
X176530000Y-51435000D03*
D10*
X167640000Y-48895000D03*
X173990000Y-46355000D03*
X171450000Y-45535000D03*
D12*
X176950000Y-51435000D03*
X165950000Y-51435000D03*
D11*
X171450000Y-51435000D03*
D10*
X176550000Y-47535000D03*
X176550000Y-66585000D03*
D11*
X171450000Y-70485000D03*
D12*
X165950000Y-70485000D03*
X176950000Y-70485000D03*
D10*
X171450000Y-64585000D03*
X173990000Y-65405000D03*
X167640000Y-67945000D03*
D13*
X176530000Y-70485000D03*
X166370000Y-70485000D03*
X166370000Y-89535000D03*
X176530000Y-89535000D03*
D10*
X167640000Y-86995000D03*
X173990000Y-84455000D03*
X171450000Y-83635000D03*
D12*
X176950000Y-89535000D03*
X165950000Y-89535000D03*
D11*
X171450000Y-89535000D03*
D10*
X176550000Y-85635000D03*
X195600000Y-50075000D03*
D11*
X190500000Y-53975000D03*
D12*
X185000000Y-53975000D03*
X196000000Y-53975000D03*
D10*
X190500000Y-48075000D03*
X193040000Y-48895000D03*
X186690000Y-51435000D03*
D13*
X195580000Y-53975000D03*
X185420000Y-53975000D03*
X185420000Y-73025000D03*
X195580000Y-73025000D03*
D10*
X186690000Y-70485000D03*
X193040000Y-67945000D03*
X190500000Y-67125000D03*
D12*
X196000000Y-73025000D03*
X185000000Y-73025000D03*
D11*
X190500000Y-73025000D03*
D10*
X195600000Y-69125000D03*
X195600000Y-88175000D03*
D11*
X190500000Y-92075000D03*
D12*
X185000000Y-92075000D03*
X196000000Y-92075000D03*
D10*
X190500000Y-86175000D03*
X193040000Y-86995000D03*
X186690000Y-89535000D03*
D13*
X195580000Y-92075000D03*
X185420000Y-92075000D03*
X204470000Y-113665000D03*
X214630000Y-113665000D03*
D10*
X205740000Y-111125000D03*
X212090000Y-108585000D03*
X209550000Y-107765000D03*
D12*
X215050000Y-113665000D03*
X204050000Y-113665000D03*
D11*
X209550000Y-113665000D03*
D10*
X214650000Y-109765000D03*
X195600000Y-107225000D03*
D11*
X190500000Y-111125000D03*
D12*
X185000000Y-111125000D03*
X196000000Y-111125000D03*
D10*
X190500000Y-105225000D03*
X193040000Y-106045000D03*
X186690000Y-108585000D03*
D13*
X195580000Y-111125000D03*
X185420000Y-111125000D03*
D14*
X235063000Y-59560000D03*
X239663000Y-58460000D03*
X239663000Y-51460000D03*
D15*
X237363000Y-56860000D03*
X237363000Y-49860000D03*
D14*
X239663000Y-54460000D03*
D16*
X238315000Y-62865000D03*
X238315000Y-65405000D03*
X238315000Y-67945000D03*
X238315000Y-70485000D03*
X238315000Y-73025000D03*
X238315000Y-75565000D03*
X238315000Y-78105000D03*
X238315000Y-80645000D03*
X238315000Y-83185000D03*
X238315000Y-85725000D03*
X238315000Y-88265000D03*
X238315000Y-90805000D03*
D17*
X220470000Y-53930000D03*
X229110000Y-53930000D03*
D18*
X227680000Y-53400000D03*
D19*
X229110000Y-49750000D03*
D18*
X221900000Y-53400000D03*
D19*
X220470000Y-49750000D03*
M02*
