M48
; DRILL file {KiCad 5.1.10} date Tue Jun 22 11:56:43 2021
; FORMAT={-:-/ absolute / metric / decimal}
; #@! TF.CreationDate,2021-06-22T11:56:43+03:00
; #@! TF.GenerationSoftware,Kicad,Pcbnew,5.1.10
; #@! TF.FileFunction,NonPlated,1,2,NPTH
FMAT,2
METRIC
T1C0.650
T2C0.800
T3C1.700
T4C1.900
T5C4.000
%
G90
G05
T1
X221.9Y-53.4
X227.68Y-53.4
T2
X237.363Y-49.86
X237.363Y-56.86
T3
X90.17Y-81.407
X100.33Y-81.407
X109.22Y-66.675
X109.22Y-85.725
X109.22Y-104.775
X119.38Y-66.675
X119.38Y-85.725
X119.38Y-104.775
X128.27Y-64.135
X128.27Y-83.185
X128.27Y-102.235
X138.43Y-64.135
X138.43Y-83.185
X138.43Y-102.235
X147.32Y-53.975
X147.32Y-73.025
X147.32Y-92.075
X157.48Y-53.975
X157.48Y-73.025
X157.48Y-92.075
X166.37Y-51.435
X166.37Y-70.485
X166.37Y-89.535
X176.53Y-51.435
X176.53Y-70.485
X176.53Y-89.535
X185.42Y-53.975
X185.42Y-73.025
X185.42Y-92.075
X185.42Y-111.125
X195.58Y-53.975
X195.58Y-73.025
X195.58Y-92.075
X195.58Y-111.125
X204.47Y-56.515
X204.47Y-75.565
X204.47Y-94.615
X204.47Y-113.665
X214.63Y-56.515
X214.63Y-75.565
X214.63Y-94.615
X214.63Y-113.665
X223.52Y-116.205
X233.68Y-116.205
T4
X89.75Y-81.407
X100.75Y-81.407
X108.8Y-66.675
X108.8Y-85.725
X108.8Y-104.775
X119.8Y-66.675
X119.8Y-85.725
X119.8Y-104.775
X127.85Y-64.135
X127.85Y-83.185
X127.85Y-102.235
X138.85Y-64.135
X138.85Y-83.185
X138.85Y-102.235
X146.9Y-53.975
X146.9Y-73.025
X146.9Y-92.075
X157.9Y-53.975
X157.9Y-73.025
X157.9Y-92.075
X165.95Y-51.435
X165.95Y-70.485
X165.95Y-89.535
X176.95Y-51.435
X176.95Y-70.485
X176.95Y-89.535
X185.0Y-53.975
X185.0Y-73.025
X185.0Y-92.075
X185.0Y-111.125
X196.0Y-53.975
X196.0Y-73.025
X196.0Y-92.075
X196.0Y-111.125
X204.05Y-56.515
X204.05Y-75.565
X204.05Y-94.615
X204.05Y-113.665
X215.05Y-56.515
X215.05Y-75.565
X215.05Y-94.615
X215.05Y-113.665
X223.1Y-116.205
X234.1Y-116.205
T5
X95.25Y-81.407
X114.3Y-66.675
X114.3Y-85.725
X114.3Y-104.775
X133.35Y-64.135
X133.35Y-83.185
X133.35Y-102.235
X152.4Y-53.975
X152.4Y-73.025
X152.4Y-92.075
X171.45Y-51.435
X171.45Y-70.485
X171.45Y-89.535
X190.5Y-53.975
X190.5Y-73.025
X190.5Y-92.075
X190.5Y-111.125
X209.55Y-56.515
X209.55Y-75.565
X209.55Y-94.615
X209.55Y-113.665
X228.6Y-116.205
T0
M30
