G04 #@! TF.GenerationSoftware,KiCad,Pcbnew,5.1.10*
G04 #@! TF.CreationDate,2021-06-22T11:56:40+03:00*
G04 #@! TF.ProjectId,left,6c656674-2e6b-4696-9361-645f70636258,rev?*
G04 #@! TF.SameCoordinates,Original*
G04 #@! TF.FileFunction,Paste,Top*
G04 #@! TF.FilePolarity,Positive*
%FSLAX46Y46*%
G04 Gerber Fmt 4.6, Leading zero omitted, Abs format (unit mm)*
G04 Created by KiCad (PCBNEW 5.1.10) date 2021-06-22 11:56:40*
%MOMM*%
%LPD*%
G01*
G04 APERTURE LIST*
%ADD10R,1.500000X1.500000*%
%ADD11R,1.000000X1.000000*%
%ADD12R,1.300000X0.250000*%
%ADD13R,0.250000X1.300000*%
%ADD14R,0.800000X0.900000*%
%ADD15R,0.600000X1.450000*%
%ADD16R,0.300000X1.450000*%
G04 APERTURE END LIST*
D10*
X230759000Y-77634000D03*
X230759000Y-85434000D03*
X224663000Y-77634000D03*
X224663000Y-85434000D03*
G36*
G01*
X221557000Y-59632001D02*
X221557000Y-58731999D01*
G75*
G02*
X221806999Y-58482000I249999J0D01*
G01*
X222457001Y-58482000D01*
G75*
G02*
X222707000Y-58731999I0J-249999D01*
G01*
X222707000Y-59632001D01*
G75*
G02*
X222457001Y-59882000I-249999J0D01*
G01*
X221806999Y-59882000D01*
G75*
G02*
X221557000Y-59632001I0J249999D01*
G01*
G37*
G36*
G01*
X219507000Y-59632001D02*
X219507000Y-58731999D01*
G75*
G02*
X219756999Y-58482000I249999J0D01*
G01*
X220407001Y-58482000D01*
G75*
G02*
X220657000Y-58731999I0J-249999D01*
G01*
X220657000Y-59632001D01*
G75*
G02*
X220407001Y-59882000I-249999J0D01*
G01*
X219756999Y-59882000D01*
G75*
G02*
X219507000Y-59632001I0J249999D01*
G01*
G37*
G36*
G01*
X224593999Y-63696000D02*
X225494001Y-63696000D01*
G75*
G02*
X225744000Y-63945999I0J-249999D01*
G01*
X225744000Y-64596001D01*
G75*
G02*
X225494001Y-64846000I-249999J0D01*
G01*
X224593999Y-64846000D01*
G75*
G02*
X224344000Y-64596001I0J249999D01*
G01*
X224344000Y-63945999D01*
G75*
G02*
X224593999Y-63696000I249999J0D01*
G01*
G37*
G36*
G01*
X224593999Y-61646000D02*
X225494001Y-61646000D01*
G75*
G02*
X225744000Y-61895999I0J-249999D01*
G01*
X225744000Y-62546001D01*
G75*
G02*
X225494001Y-62796000I-249999J0D01*
G01*
X224593999Y-62796000D01*
G75*
G02*
X224344000Y-62546001I0J249999D01*
G01*
X224344000Y-61895999D01*
G75*
G02*
X224593999Y-61646000I249999J0D01*
G01*
G37*
G36*
G01*
X221672999Y-71570000D02*
X222573001Y-71570000D01*
G75*
G02*
X222823000Y-71819999I0J-249999D01*
G01*
X222823000Y-72470001D01*
G75*
G02*
X222573001Y-72720000I-249999J0D01*
G01*
X221672999Y-72720000D01*
G75*
G02*
X221423000Y-72470001I0J249999D01*
G01*
X221423000Y-71819999D01*
G75*
G02*
X221672999Y-71570000I249999J0D01*
G01*
G37*
G36*
G01*
X221672999Y-69520000D02*
X222573001Y-69520000D01*
G75*
G02*
X222823000Y-69769999I0J-249999D01*
G01*
X222823000Y-70420001D01*
G75*
G02*
X222573001Y-70670000I-249999J0D01*
G01*
X221672999Y-70670000D01*
G75*
G02*
X221423000Y-70420001I0J249999D01*
G01*
X221423000Y-69769999D01*
G75*
G02*
X221672999Y-69520000I249999J0D01*
G01*
G37*
G36*
G01*
X234765001Y-74988000D02*
X233864999Y-74988000D01*
G75*
G02*
X233615000Y-74738001I0J249999D01*
G01*
X233615000Y-74087999D01*
G75*
G02*
X233864999Y-73838000I249999J0D01*
G01*
X234765001Y-73838000D01*
G75*
G02*
X235015000Y-74087999I0J-249999D01*
G01*
X235015000Y-74738001D01*
G75*
G02*
X234765001Y-74988000I-249999J0D01*
G01*
G37*
G36*
G01*
X234765001Y-77038000D02*
X233864999Y-77038000D01*
G75*
G02*
X233615000Y-76788001I0J249999D01*
G01*
X233615000Y-76137999D01*
G75*
G02*
X233864999Y-75888000I249999J0D01*
G01*
X234765001Y-75888000D01*
G75*
G02*
X235015000Y-76137999I0J-249999D01*
G01*
X235015000Y-76788001D01*
G75*
G02*
X234765001Y-77038000I-249999J0D01*
G01*
G37*
G36*
G01*
X221557000Y-65728001D02*
X221557000Y-64827999D01*
G75*
G02*
X221806999Y-64578000I249999J0D01*
G01*
X222457001Y-64578000D01*
G75*
G02*
X222707000Y-64827999I0J-249999D01*
G01*
X222707000Y-65728001D01*
G75*
G02*
X222457001Y-65978000I-249999J0D01*
G01*
X221806999Y-65978000D01*
G75*
G02*
X221557000Y-65728001I0J249999D01*
G01*
G37*
G36*
G01*
X219507000Y-65728001D02*
X219507000Y-64827999D01*
G75*
G02*
X219756999Y-64578000I249999J0D01*
G01*
X220407001Y-64578000D01*
G75*
G02*
X220657000Y-64827999I0J-249999D01*
G01*
X220657000Y-65728001D01*
G75*
G02*
X220407001Y-65978000I-249999J0D01*
G01*
X219756999Y-65978000D01*
G75*
G02*
X219507000Y-65728001I0J249999D01*
G01*
G37*
G36*
G01*
X221176001Y-78163000D02*
X220275999Y-78163000D01*
G75*
G02*
X220026000Y-77913001I0J249999D01*
G01*
X220026000Y-77262999D01*
G75*
G02*
X220275999Y-77013000I249999J0D01*
G01*
X221176001Y-77013000D01*
G75*
G02*
X221426000Y-77262999I0J-249999D01*
G01*
X221426000Y-77913001D01*
G75*
G02*
X221176001Y-78163000I-249999J0D01*
G01*
G37*
G36*
G01*
X221176001Y-80213000D02*
X220275999Y-80213000D01*
G75*
G02*
X220026000Y-79963001I0J249999D01*
G01*
X220026000Y-79312999D01*
G75*
G02*
X220275999Y-79063000I249999J0D01*
G01*
X221176001Y-79063000D01*
G75*
G02*
X221426000Y-79312999I0J-249999D01*
G01*
X221426000Y-79963001D01*
G75*
G02*
X221176001Y-80213000I-249999J0D01*
G01*
G37*
G36*
G01*
X235273001Y-63304000D02*
X234372999Y-63304000D01*
G75*
G02*
X234123000Y-63054001I0J249999D01*
G01*
X234123000Y-62403999D01*
G75*
G02*
X234372999Y-62154000I249999J0D01*
G01*
X235273001Y-62154000D01*
G75*
G02*
X235523000Y-62403999I0J-249999D01*
G01*
X235523000Y-63054001D01*
G75*
G02*
X235273001Y-63304000I-249999J0D01*
G01*
G37*
G36*
G01*
X235273001Y-65354000D02*
X234372999Y-65354000D01*
G75*
G02*
X234123000Y-65104001I0J249999D01*
G01*
X234123000Y-64453999D01*
G75*
G02*
X234372999Y-64204000I249999J0D01*
G01*
X235273001Y-64204000D01*
G75*
G02*
X235523000Y-64453999I0J-249999D01*
G01*
X235523000Y-65104001D01*
G75*
G02*
X235273001Y-65354000I-249999J0D01*
G01*
G37*
D11*
X233759440Y-102794927D03*
X233759440Y-100294927D03*
X233759440Y-91618927D03*
X233759440Y-89118927D03*
X221020000Y-105410000D03*
X223520000Y-105410000D03*
X227663440Y-102794927D03*
X227663440Y-100294927D03*
X227663440Y-97206927D03*
X227663440Y-94706927D03*
X227663440Y-91618927D03*
X227663440Y-89118927D03*
X223599440Y-102794927D03*
X223599440Y-100294927D03*
X223599440Y-97206927D03*
X223599440Y-94706927D03*
X223599440Y-91618927D03*
X223599440Y-89118927D03*
X229656000Y-105410000D03*
X232156000Y-105410000D03*
X233759440Y-97206927D03*
X233759440Y-94706927D03*
X231727440Y-102794927D03*
X231727440Y-100294927D03*
X231727440Y-97206927D03*
X231727440Y-94706927D03*
X231727440Y-91618927D03*
X231727440Y-89118927D03*
X225298000Y-105410000D03*
X227798000Y-105410000D03*
X229695440Y-102794927D03*
X229695440Y-100294927D03*
X229695440Y-97206927D03*
X229695440Y-94706927D03*
X229695440Y-91618927D03*
X229695440Y-89118927D03*
X225631440Y-102794927D03*
X225631440Y-100294927D03*
X225631440Y-97206927D03*
X225631440Y-94706927D03*
X225631440Y-91618927D03*
X225631440Y-89118927D03*
X233934000Y-105410000D03*
X236434000Y-105410000D03*
D12*
X225393000Y-72092000D03*
X225393000Y-71592000D03*
X225393000Y-71092000D03*
X225393000Y-70592000D03*
X225393000Y-70092000D03*
X225393000Y-69592000D03*
X225393000Y-69092000D03*
X225393000Y-68592000D03*
X225393000Y-68092000D03*
X225393000Y-67592000D03*
X225393000Y-67092000D03*
X225393000Y-66592000D03*
D13*
X226993000Y-64992000D03*
X227493000Y-64992000D03*
X227993000Y-64992000D03*
X228493000Y-64992000D03*
X228993000Y-64992000D03*
X229493000Y-64992000D03*
X229993000Y-64992000D03*
X230493000Y-64992000D03*
X230993000Y-64992000D03*
X231493000Y-64992000D03*
X231993000Y-64992000D03*
X232493000Y-64992000D03*
D12*
X234093000Y-66592000D03*
X234093000Y-67092000D03*
X234093000Y-67592000D03*
X234093000Y-68092000D03*
X234093000Y-68592000D03*
X234093000Y-69092000D03*
X234093000Y-69592000D03*
X234093000Y-70092000D03*
X234093000Y-70592000D03*
X234093000Y-71092000D03*
X234093000Y-71592000D03*
X234093000Y-72092000D03*
D13*
X232493000Y-73692000D03*
X231993000Y-73692000D03*
X231493000Y-73692000D03*
X230993000Y-73692000D03*
X230493000Y-73692000D03*
X229993000Y-73692000D03*
X229493000Y-73692000D03*
X228993000Y-73692000D03*
X228493000Y-73692000D03*
X227993000Y-73692000D03*
X227493000Y-73692000D03*
X226993000Y-73692000D03*
D14*
X221107000Y-61230000D03*
X222057000Y-63230000D03*
X220157000Y-63230000D03*
G36*
G01*
X222680000Y-73971999D02*
X222680000Y-74872001D01*
G75*
G02*
X222430001Y-75122000I-249999J0D01*
G01*
X221779999Y-75122000D01*
G75*
G02*
X221530000Y-74872001I0J249999D01*
G01*
X221530000Y-73971999D01*
G75*
G02*
X221779999Y-73722000I249999J0D01*
G01*
X222430001Y-73722000D01*
G75*
G02*
X222680000Y-73971999I0J-249999D01*
G01*
G37*
G36*
G01*
X224730000Y-73971999D02*
X224730000Y-74872001D01*
G75*
G02*
X224480001Y-75122000I-249999J0D01*
G01*
X223829999Y-75122000D01*
G75*
G02*
X223580000Y-74872001I0J249999D01*
G01*
X223580000Y-73971999D01*
G75*
G02*
X223829999Y-73722000I249999J0D01*
G01*
X224480001Y-73722000D01*
G75*
G02*
X224730000Y-73971999I0J-249999D01*
G01*
G37*
G36*
G01*
X223704999Y-59124000D02*
X224605001Y-59124000D01*
G75*
G02*
X224855000Y-59373999I0J-249999D01*
G01*
X224855000Y-60024001D01*
G75*
G02*
X224605001Y-60274000I-249999J0D01*
G01*
X223704999Y-60274000D01*
G75*
G02*
X223455000Y-60024001I0J249999D01*
G01*
X223455000Y-59373999D01*
G75*
G02*
X223704999Y-59124000I249999J0D01*
G01*
G37*
G36*
G01*
X223704999Y-57074000D02*
X224605001Y-57074000D01*
G75*
G02*
X224855000Y-57323999I0J-249999D01*
G01*
X224855000Y-57974001D01*
G75*
G02*
X224605001Y-58224000I-249999J0D01*
G01*
X223704999Y-58224000D01*
G75*
G02*
X223455000Y-57974001I0J249999D01*
G01*
X223455000Y-57323999D01*
G75*
G02*
X223704999Y-57074000I249999J0D01*
G01*
G37*
G36*
G01*
X228276999Y-59124000D02*
X229177001Y-59124000D01*
G75*
G02*
X229427000Y-59373999I0J-249999D01*
G01*
X229427000Y-60024001D01*
G75*
G02*
X229177001Y-60274000I-249999J0D01*
G01*
X228276999Y-60274000D01*
G75*
G02*
X228027000Y-60024001I0J249999D01*
G01*
X228027000Y-59373999D01*
G75*
G02*
X228276999Y-59124000I249999J0D01*
G01*
G37*
G36*
G01*
X228276999Y-57074000D02*
X229177001Y-57074000D01*
G75*
G02*
X229427000Y-57323999I0J-249999D01*
G01*
X229427000Y-57974001D01*
G75*
G02*
X229177001Y-58224000I-249999J0D01*
G01*
X228276999Y-58224000D01*
G75*
G02*
X228027000Y-57974001I0J249999D01*
G01*
X228027000Y-57323999D01*
G75*
G02*
X228276999Y-57074000I249999J0D01*
G01*
G37*
D15*
X221540000Y-54845000D03*
X222340000Y-54845000D03*
X227240000Y-54845000D03*
X228040000Y-54845000D03*
X228040000Y-54845000D03*
X227240000Y-54845000D03*
X222340000Y-54845000D03*
X221540000Y-54845000D03*
D16*
X226540000Y-54845000D03*
X226040000Y-54845000D03*
X225540000Y-54845000D03*
X224540000Y-54845000D03*
X224040000Y-54845000D03*
X223540000Y-54845000D03*
X223040000Y-54845000D03*
X225040000Y-54845000D03*
M02*
