G04 #@! TF.GenerationSoftware,KiCad,Pcbnew,5.1.10*
G04 #@! TF.CreationDate,2021-06-22T11:56:40+03:00*
G04 #@! TF.ProjectId,left,6c656674-2e6b-4696-9361-645f70636258,rev?*
G04 #@! TF.SameCoordinates,Original*
G04 #@! TF.FileFunction,Profile,NP*
%FSLAX46Y46*%
G04 Gerber Fmt 4.6, Leading zero omitted, Abs format (unit mm)*
G04 Created by KiCad (PCBNEW 5.1.10) date 2021-06-22 11:56:40*
%MOMM*%
%LPD*%
G01*
G04 APERTURE LIST*
G04 #@! TA.AperFunction,Profile*
%ADD10C,0.100000*%
G04 #@! TD*
G04 APERTURE END LIST*
D10*
X142875000Y-45847000D02*
X142875000Y-52070000D01*
X144272000Y-44450000D02*
X159258000Y-44450000D01*
X133477000Y-54610000D02*
X140335000Y-54610000D01*
X142875000Y-45847000D02*
X144272000Y-44450000D01*
X140335000Y-54610000D02*
X142875000Y-52070000D01*
X104775000Y-70612000D02*
X104775000Y-59055000D01*
X104775000Y-92075000D02*
X104775000Y-97663000D01*
X147066000Y-105664000D02*
X167640000Y-105664000D01*
X142875000Y-109855000D02*
X147066000Y-105664000D01*
X125095000Y-54610000D02*
X133477000Y-54610000D01*
X86868000Y-90932000D02*
X103632000Y-90932000D01*
X86868000Y-71882000D02*
X103505000Y-71882000D01*
X85725000Y-73025000D02*
X85725000Y-89789000D01*
X86868000Y-71882000D02*
X85725000Y-73025000D01*
X86868000Y-90932000D02*
X85725000Y-89789000D01*
X105918000Y-114300000D02*
X123825000Y-114300000D01*
X104775000Y-97663000D02*
X104775000Y-113157000D01*
X104775000Y-113157000D02*
X105918000Y-114300000D01*
X103632000Y-90932000D02*
X104775000Y-92075000D01*
X197485000Y-120650000D02*
X182626000Y-120650000D01*
X200025000Y-123190000D02*
X197485000Y-120650000D01*
X216535000Y-123190000D02*
X200025000Y-123190000D01*
X219075000Y-125730000D02*
X216535000Y-123190000D01*
X219837000Y-125730000D02*
X219075000Y-125730000D01*
X103505000Y-71882000D02*
X104775000Y-70612000D01*
X201295000Y-46990000D02*
X219075000Y-46990000D01*
X198755000Y-44450000D02*
X201295000Y-46990000D01*
X198374000Y-44450000D02*
X198755000Y-44450000D01*
X183515000Y-44450000D02*
X198374000Y-44450000D01*
X180975000Y-41910000D02*
X183515000Y-44450000D01*
X140970000Y-111760000D02*
X126365000Y-111760000D01*
X142875000Y-109855000D02*
X140970000Y-111760000D01*
X180975000Y-118999000D02*
X167640000Y-105664000D01*
X159385000Y-44450000D02*
X161925000Y-41910000D01*
X159258000Y-44450000D02*
X159385000Y-44450000D01*
X122555000Y-57150000D02*
X125095000Y-54610000D01*
X122428000Y-57150000D02*
X122555000Y-57150000D01*
X122174000Y-57150000D02*
X122428000Y-57150000D01*
X121920000Y-57150000D02*
X122174000Y-57150000D01*
X106680000Y-57150000D02*
X121920000Y-57150000D01*
X104775000Y-59055000D02*
X106680000Y-57150000D01*
X123825000Y-114300000D02*
X126365000Y-111760000D01*
X240665000Y-122047000D02*
X240665000Y-104140000D01*
X238125000Y-124587000D02*
X240665000Y-122047000D01*
X236982000Y-125730000D02*
X238125000Y-124587000D01*
X219837000Y-125730000D02*
X236982000Y-125730000D01*
X180975000Y-118999000D02*
X182626000Y-120650000D01*
X240665000Y-46990000D02*
X240665000Y-104140000D01*
X219075000Y-46990000D02*
X240665000Y-46990000D01*
X161925000Y-41910000D02*
X180975000Y-41910000D01*
M02*
