M48
; DRILL file {KiCad 5.1.10} date Tue Jun 22 11:56:21 2021
; FORMAT={-:-/ absolute / metric / decimal}
; #@! TF.CreationDate,2021-06-22T11:56:21+03:00
; #@! TF.GenerationSoftware,Kicad,Pcbnew,5.1.10
; #@! TF.FileFunction,Plated,1,2,PTH
FMAT,2
METRIC
T1C0.400
T2C0.600
T3C0.900
T4C1.200
%
G90
G05
T1
X83.185Y-87.122
X83.185Y-102.235
X83.312Y-91.948
X83.312Y-94.615
X83.312Y-97.028
X83.312Y-99.822
X85.09Y-80.772
X85.598Y-86.614
X85.598Y-87.972
X85.598Y-89.408
X85.598Y-109.982
X85.684Y-85.192
X86.786Y-83.693
X86.868Y-100.584
X87.757Y-99.568
X88.773Y-93.726
X88.773Y-98.552
X88.994Y-87.376
X89.261Y-86.126
X89.408Y-81.026
X89.413Y-89.022
X90.043Y-90.043
X90.297Y-101.092
X91.953Y-80.396
X92.075Y-84.455
X92.71Y-121.412
X92.837Y-112.542
X92.837Y-118.13
X93.091Y-85.725
X93.091Y-86.868
X93.345Y-80.264
X94.107Y-87.63
X94.234Y-84.836
X94.869Y-106.954
X95.631Y-77.724
X96.774Y-93.853
X97.79Y-98.806
X98.044Y-84.963
X98.139Y-90.067
X98.933Y-87.376
X99.695Y-86.614
X100.457Y-85.725
X101.219Y-125.984
X104.521Y-121.666
X108.521Y-65.977
X115.57Y-138.557
X118.999Y-68.453
X120.752Y-84.328
X121.31Y-103.175
X127.0Y-136.017
X139.446Y-68.453
X145.415Y-62.484
X176.886Y-122.301
X183.388Y-112.141
X186.182Y-89.027
X212.852Y-89.027
T4
X89.154Y-131.572
X92.964Y-128.212
X95.504Y-129.032
X98.064Y-130.212
X108.204Y-71.882
X108.204Y-90.932
X108.204Y-109.982
X108.204Y-129.032
X112.014Y-68.522
X112.014Y-87.572
X112.014Y-106.622
X112.014Y-125.672
X114.554Y-69.342
X114.554Y-88.392
X114.554Y-107.442
X114.554Y-126.492
X117.114Y-70.522
X117.114Y-89.572
X117.114Y-108.622
X117.114Y-127.672
X127.254Y-69.342
X127.254Y-88.392
X127.254Y-107.442
X127.254Y-126.492
X131.064Y-65.982
X131.064Y-85.032
X131.064Y-104.082
X131.064Y-123.132
X133.604Y-66.802
X133.604Y-85.852
X133.604Y-104.902
X133.604Y-123.952
X136.164Y-67.982
X136.164Y-87.032
X136.164Y-106.082
X136.164Y-125.132
X146.304Y-66.802
X146.304Y-85.852
X146.304Y-104.902
X150.114Y-63.442
X150.114Y-82.492
X150.114Y-101.542
X152.654Y-64.262
X152.654Y-83.312
X152.654Y-102.362
X155.214Y-65.442
X155.214Y-84.492
X155.214Y-103.542
X165.354Y-69.342
X165.354Y-88.392
X165.354Y-107.442
X169.164Y-65.982
X169.164Y-85.032
X169.164Y-104.082
X171.704Y-66.802
X171.704Y-85.852
X171.704Y-104.902
X174.264Y-67.982
X174.264Y-87.032
X174.264Y-106.082
X184.404Y-79.502
X184.404Y-98.552
X184.404Y-117.602
X188.214Y-76.142
X188.214Y-95.192
X188.214Y-114.242
X190.754Y-76.962
X190.754Y-96.012
X190.754Y-115.062
X193.314Y-78.142
X193.314Y-97.192
X193.314Y-116.242
X203.454Y-82.042
X203.454Y-101.092
X203.454Y-120.142
X207.264Y-78.682
X207.264Y-97.732
X207.264Y-116.782
X209.804Y-79.502
X209.804Y-98.552
X209.804Y-117.602
X212.364Y-80.682
X212.364Y-99.732
X212.364Y-118.782
X222.504Y-96.774
X226.314Y-93.414
X228.854Y-94.234
X231.414Y-95.414
T2
X92.454Y-67.957G85X92.454Y-67.357
G05
X92.454Y-72.387G85X92.454Y-71.287
G05
X101.094Y-67.957G85X101.094Y-67.357
G05
X101.094Y-72.387G85X101.094Y-71.287
G05
T3
X81.901Y-77.267G85X81.901Y-77.667
G05
X81.901Y-77.267G85X81.901Y-77.667
G05
X86.501Y-69.167G85X86.501Y-69.567
G05
X86.501Y-69.167G85X86.501Y-69.567
G05
X86.501Y-72.167G85X86.501Y-72.567
G05
X86.501Y-72.167G85X86.501Y-72.567
G05
X86.501Y-76.167G85X86.501Y-76.567
G05
X86.501Y-76.167G85X86.501Y-76.567
G05
T0
M30
