M48
; DRILL file {KiCad 5.1.10} date Tue Jun 22 11:56:21 2021
; FORMAT={-:-/ absolute / metric / decimal}
; #@! TF.CreationDate,2021-06-22T11:56:21+03:00
; #@! TF.GenerationSoftware,Kicad,Pcbnew,5.1.10
; #@! TF.FileFunction,NonPlated,1,2,NPTH
FMAT,2
METRIC
T1C0.650
T2C0.800
T3C1.700
T4C1.900
T5C4.000
%
G90
G05
T1
X93.884Y-71.307
X99.664Y-71.307
T2
X84.201Y-67.767
X84.201Y-74.767
T3
X87.884Y-134.112
X98.044Y-134.112
X106.934Y-74.422
X106.934Y-93.472
X106.934Y-112.522
X106.934Y-131.572
X117.094Y-74.422
X117.094Y-93.472
X117.094Y-112.522
X117.094Y-131.572
X125.984Y-71.882
X125.984Y-90.932
X125.984Y-109.982
X125.984Y-129.032
X136.144Y-71.882
X136.144Y-90.932
X136.144Y-109.982
X136.144Y-129.032
X145.034Y-69.342
X145.034Y-88.392
X145.034Y-107.442
X155.194Y-69.342
X155.194Y-88.392
X155.194Y-107.442
X164.084Y-71.882
X164.084Y-90.932
X164.084Y-109.982
X174.244Y-71.882
X174.244Y-90.932
X174.244Y-109.982
X183.134Y-82.042
X183.134Y-101.092
X183.134Y-120.142
X193.294Y-82.042
X193.294Y-101.092
X193.294Y-120.142
X202.184Y-84.582
X202.184Y-103.632
X202.184Y-122.682
X212.344Y-84.582
X212.344Y-103.632
X212.344Y-122.682
X221.234Y-99.314
X231.394Y-99.314
T4
X87.464Y-134.112
X98.464Y-134.112
X106.514Y-74.422
X106.514Y-93.472
X106.514Y-112.522
X106.514Y-131.572
X117.514Y-74.422
X117.514Y-93.472
X117.514Y-112.522
X117.514Y-131.572
X125.564Y-71.882
X125.564Y-90.932
X125.564Y-109.982
X125.564Y-129.032
X136.564Y-71.882
X136.564Y-90.932
X136.564Y-109.982
X136.564Y-129.032
X144.614Y-69.342
X144.614Y-88.392
X144.614Y-107.442
X155.614Y-69.342
X155.614Y-88.392
X155.614Y-107.442
X163.664Y-71.882
X163.664Y-90.932
X163.664Y-109.982
X174.664Y-71.882
X174.664Y-90.932
X174.664Y-109.982
X182.714Y-82.042
X182.714Y-101.092
X182.714Y-120.142
X193.714Y-82.042
X193.714Y-101.092
X193.714Y-120.142
X201.764Y-84.582
X201.764Y-103.632
X201.764Y-122.682
X212.764Y-84.582
X212.764Y-103.632
X212.764Y-122.682
X220.814Y-99.314
X231.814Y-99.314
T5
X92.964Y-134.112
X112.014Y-74.422
X112.014Y-93.472
X112.014Y-112.522
X112.014Y-131.572
X131.064Y-71.882
X131.064Y-90.932
X131.064Y-109.982
X131.064Y-129.032
X150.114Y-69.342
X150.114Y-88.392
X150.114Y-107.442
X169.164Y-71.882
X169.164Y-90.932
X169.164Y-109.982
X188.214Y-82.042
X188.214Y-101.092
X188.214Y-120.142
X207.264Y-84.582
X207.264Y-103.632
X207.264Y-122.682
X226.314Y-99.314
T0
M30
