G04 #@! TF.GenerationSoftware,KiCad,Pcbnew,5.1.10*
G04 #@! TF.CreationDate,2021-06-22T11:56:20+03:00*
G04 #@! TF.ProjectId,right,72696768-742e-46b6-9963-61645f706362,rev?*
G04 #@! TF.SameCoordinates,Original*
G04 #@! TF.FileFunction,Profile,NP*
%FSLAX46Y46*%
G04 Gerber Fmt 4.6, Leading zero omitted, Abs format (unit mm)*
G04 Created by KiCad (PCBNEW 5.1.10) date 2021-06-22 11:56:20*
%MOMM*%
%LPD*%
G01*
G04 APERTURE LIST*
G04 #@! TA.AperFunction,Profile*
%ADD10C,0.150000*%
G04 #@! TD*
G04 #@! TA.AperFunction,Profile*
%ADD11C,0.200000*%
G04 #@! TD*
G04 APERTURE END LIST*
D10*
X150622000Y-124968000D02*
X167894000Y-124968000D01*
X176530000Y-124968000D02*
X178689000Y-124968000D01*
X102489000Y-143637000D02*
X83439000Y-143637000D01*
X102489000Y-141097000D02*
X102489000Y-143637000D01*
X121539000Y-141097000D02*
X102489000Y-141097000D01*
X121539000Y-138557000D02*
X121539000Y-141097000D01*
X140589000Y-138557000D02*
X121539000Y-138557000D01*
X140589000Y-124968000D02*
X140589000Y-138557000D01*
X141986000Y-124968000D02*
X140589000Y-124968000D01*
X144145000Y-122809000D02*
X141986000Y-124968000D01*
X146304000Y-124968000D02*
X144145000Y-122809000D01*
X148463000Y-122809000D02*
X146304000Y-124968000D01*
X150622000Y-124968000D02*
X148463000Y-122809000D01*
X170053000Y-122809000D02*
X167894000Y-124968000D01*
X172212000Y-124968000D02*
X170053000Y-122809000D01*
X174371000Y-122809000D02*
X172212000Y-124968000D01*
X176530000Y-124968000D02*
X174371000Y-122809000D01*
X178689000Y-129667000D02*
X178689000Y-124968000D01*
X197739000Y-129667000D02*
X178689000Y-129667000D01*
X197739000Y-132207000D02*
X197739000Y-129667000D01*
X216789000Y-132207000D02*
X197739000Y-132207000D01*
X216789000Y-108839000D02*
X216789000Y-132207000D01*
X235839000Y-108839000D02*
X216789000Y-108839000D01*
X216789000Y-89789000D02*
X235839000Y-89789000D01*
X216789000Y-75057000D02*
X216789000Y-89789000D01*
X197739000Y-75057000D02*
X216789000Y-75057000D01*
X197739000Y-72517000D02*
X197739000Y-75057000D01*
X178689000Y-72517000D02*
X197739000Y-72517000D01*
X178689000Y-62357000D02*
X178689000Y-72517000D01*
X159639000Y-62357000D02*
X178689000Y-62357000D01*
X159639000Y-59817000D02*
X159639000Y-62357000D01*
X140589000Y-62357000D02*
X140589000Y-59817000D01*
X121539000Y-62357000D02*
X140589000Y-62357000D01*
X121539000Y-64897000D02*
X121539000Y-62357000D01*
X102489000Y-64897000D02*
X121539000Y-64897000D01*
X80899000Y-141097000D02*
X80899000Y-122047000D01*
X83439000Y-143637000D02*
X80899000Y-141097000D01*
X235839000Y-89789000D02*
X235839000Y-108839000D01*
X80899000Y-64897000D02*
X80899000Y-122047000D01*
X102489000Y-64897000D02*
X80899000Y-64897000D01*
D11*
X140589000Y-59817000D02*
X159639000Y-59817000D01*
M02*
